<?xml version="1.0" encoding="utf-8"?>
<!-- Svg Vector Icons : http://www.onlinewebfonts.com/icon -->
<!DOCTYPE svg PUBLIC "-//W3C//DTD SVG 1.1//EN" "http://www.w3.org/Graphics/SVG/1.1/DTD/svg11.dtd">
<svg version="1.1" xmlns="http://www.w3.org/2000/svg" xmlns:xlink="http://www.w3.org/1999/xlink" x="0px" y="0px" viewBox="0 0 256 256" enable-background="new 0 0 256 256" xml:space="preserve">
<metadata> Svg Vector Icons : http://www.onlinewebfonts.com/icon </metadata>
<g><g><path fill="#000000" d="M129.7,200.2c-24.1,0-48.2,0-72.3,0c-6.1,0-6.2-0.2-6.2-6.4c0-17.2-0.1-34.4,0.1-51.5c0-2.8,0.6-5.8,1.7-8.3c7.6-17.3,15.5-34.5,23.1-51.8c1.4-3.3,3.3-4.5,6.9-4.4c31.8,0.1,63.5,0.1,95.3,0c3.6,0,5.4,1.4,6.7,4.6c7.2,17.3,14.5,34.6,21.7,51.9c0.9,2.2,1.5,4.7,1.5,7.1c0.1,17.7,0.1,35.5,0.1,53.3c0,5.2-0.4,5.6-5.8,5.6C178.2,200.2,154,200.2,129.7,200.2z M129.6,197.4c23.7,0,47.3,0,71,0c3.3,0,5-0.7,4.9-4.5c-0.2-16-0.1-32.1,0-48.1c0-3.4-1.1-4.6-4.5-4.5c-11.1,0.1-22.2,0.3-33.3-0.1c-4.7-0.1-6.4,1.3-7.2,5.9c-2.8,16.4-18.8,27.4-35.1,24.7c-13.4-2.2-23.4-11.8-25.6-25.3c-0.7-4.1-2.2-5.4-6.4-5.3c-11.4,0.3-22.8,0.2-34.2,0c-3.9-0.1-5.2,1.2-5.2,5.2c0.2,15.4,0.2,30.9,0,46.3c-0.1,4.3,1.1,5.7,5.6,5.7C82.8,197.3,106.2,197.4,129.6,197.4z M75.5,137.6c7.7,0,14,0.2,20.3-0.1c4.2-0.2,5.8,1.1,6,5.6c0.6,14.3,13.4,25.6,28.2,25.7c15.1,0,27.9-11.3,28.5-25.8c0.2-4.6,2-5.6,6.1-5.5c6.3,0.2,12.6,0,19.9,0c-2.1-6.7-3.8-12.4-5.9-18.1c-0.3-0.9-2.3-1.6-3.5-1.6c-29.9-0.1-59.7-0.1-89.6,0c-1.3,0-3.4,0.9-3.8,1.9C79.6,125.3,77.8,131,75.5,137.6z M130,115.1c14.7,0,29.5,0,44.2,0c3,0,4.5-0.8,4.4-4.1c-0.2-8.8-0.1-17.6,0-26.4c0-3.1-1.2-4-4.1-4c-29.6,0.1-59.2,0.1-88.8,0c-3.1,0-4,1.2-4,4.1c0.1,8.5,0.2,17,0,25.6c-0.1,3.9,1.3,4.9,5,4.9C101.1,115,115.6,115.1,130,115.1z M205.5,137.6c-7.8-18.7-15.3-36.5-22.8-54.2c-0.4,0.1-0.7,0.1-1.1,0.2c-0.1,1.4-0.2,2.7-0.2,4.1c0,6.3,0.4,12.7-0.1,19c-0.7,9.4,1.4,18.3,4.5,27c0.5,1.5,2.1,3.6,3.3,3.7C194.1,137.8,199.1,137.6,205.5,137.6z M53.9,137.6c5.9,0,10.5-0.2,15.1,0.1c3.2,0.2,4.6-1.3,5.5-4.1c3-8.9,5.2-17.9,4.5-27.5c-0.4-5.6,0-11.2-0.1-16.9c0-1.2-0.2-2.4-0.4-3.6c-0.4-0.1-0.8-0.2-1.2-0.3C69.7,102.5,62,119.5,53.9,137.6z"/><path fill="#000000" d="M140.5,218.4c7.1,0.6,13.8,1.6,20.5,1.4c4.3-0.1,8.7-1.6,12.8-3.3c2.7-1.1,3.8-0.9,5.5,1.5c3,4.4,6.2,8.7,9.9,12.5c5.8,5.8,13.1,8.7,21.6,8.9c-7.3,3.8-15.1,6-23.3,6.6c-1.6,0.1-3.8-1.5-4.9-2.9c-1.8-2.4-3.7-2.6-6.4-2c-3.1,0.7-6.2,1.3-9.3,1.6c-1.6,0.1-3.4-0.5-4.9-1.3C152.2,236.3,145.6,228.1,140.5,218.4z M200.2,241.4c-0.9-1.2-1.2-1.6-1.5-1.8c-9.1-3.9-15.6-10.6-21-18.7c-0.6-0.9-3-1.6-4.1-1.2c-7.2,2.8-14.4,3.9-22,2.5c-1.8-0.3-3.6-0.3-5.7-0.5c5.9,10.6,15.4,22.1,30.4,17c3.2-1.1,5.4-0.3,7.6,2.2c1.2,1.3,3.6,2.4,5.4,2.3C192.8,243.1,196.2,242.1,200.2,241.4z"/><path fill="#000000" d="M226.8,10c5.7,16.7,5.5,41.5-18.5,49.2c0-0.4-0.1-0.9,0-1.1c7.3-9.7,9.4-20.9,9.1-32.6c-0.1-3.1,0.5-5.3,3-7.5C222.8,15.9,224.5,13,226.8,10z M214.8,52.4c11.3-2.8,15.4-26.1,10.1-35.9c-1.9,2.7-4.9,5-5,7.5C219.7,33.5,218.8,42.9,214.8,52.4z"/><path fill="#000000" d="M44.8,98.3c-0.9,2.6-2,5.5-3,8.4c-7.5-1.5-13.1-7.5-15.7-17c3,2.2,5.4,4.8,8.5,6.2C37.7,97.3,41.2,97.5,44.8,98.3z"/><path fill="#000000" d="M180.8,46.1c3,5.5,1.4,13.3-3.9,19.3c-0.3-2.1-1.1-3.8-0.7-5.1c0.7-2.3,2.2-4.4,2.9-6.7C179.9,51.4,180.2,49.1,180.8,46.1z"/></g></g>
</svg>